<svg width="375" height="812" viewBox="0 0 375 812" fill="none" xmlns="http://www.w3.org/2000/svg">
  <!-- Background -->
  <rect width="375" height="812" fill="#F9FAFB"/>
  
  <!-- Status Bar -->
  <text x="24" y="36" font-family="system-ui" font-size="14" font-weight="600" fill="#000000">9:41</text>
  <rect x="294" y="26" width="24" height="12" rx="2" fill="#000000" opacity="0.3"/>
  <rect x="322" y="26" width="16" height="12" rx="2" fill="#000000" opacity="0.3"/>
  <rect x="342" y="26" width="25" height="12" rx="4" fill="#000000" opacity="0.3"/>
  
  <!-- Header -->
  <rect x="0" y="54" width="375" height="64" fill="#FFFFFF"/>
  <circle cx="40" cy="86" r="16" fill="#F3F4F6"/>
  <text x="40" y="92" font-family="system-ui" font-size="16" fill="#6B7280" text-anchor="middle">←</text>
  <text x="72" y="94" font-family="system-ui" font-size="20" font-weight="700" fill="#111827">Lớp chủ nhiệm</text>
  
  <defs>
    <filter id="shadow">
      <feDropShadow dx="0" dy="2" stdDeviation="4" flood-color="#000000" flood-opacity="0.05"/>
    </filter>
  </defs>
  
  <!-- Class Info Card -->
  <rect x="20" y="138" width="335" height="100" rx="16" fill="#3FA9F5" filter="url(#shadow)"/>
  <text x="36" y="170" font-family="system-ui" font-size="20" font-weight="700" fill="#FFFFFF">Lớp CNTT K18</text>
  <text x="36" y="194" font-family="system-ui" font-size="14" fill="#DBEAFE">Mã lớp: CNTT18A</text>
  <text x="36" y="214" font-family="system-ui" font-size="14" fill="#DBEAFE">Tổng: 42 sinh viên</text>
  
  <!-- Stats Cards -->
  <text x="20" y="270" font-family="system-ui" font-size="16" font-weight="700" fill="#111827">Thống kê tháng này</text>
  
  <rect x="20" y="286" width="105" height="88" rx="12" fill="#FFFFFF" filter="url(#shadow)"/>
  <text x="36" y="312" font-family="system-ui" font-size="12" fill="#6B7280">Tỷ lệ có mặt</text>
  <text x="36" y="344" font-family="system-ui" font-size="28" font-weight="700" fill="#10B981">92%</text>
  <text x="36" y="364" font-family="system-ui" font-size="10" fill="#10B981">+3% so với tháng trước</text>
  
  <rect x="135" y="286" width="105" height="88" rx="12" fill="#FFFFFF" filter="url(#shadow)"/>
  <text x="151" y="312" font-family="system-ui" font-size="12" fill="#6B7280">Đi muộn</text>
  <text x="151" y="344" font-family="system-ui" font-size="28" font-weight="700" fill="#F59E0B">5%</text>
  <text x="151" y="364" font-family="system-ui" font-size="10" fill="#6B7280">2 sinh viên</text>
  
  <rect x="250" y="286" width="105" height="88" rx="12" fill="#FFFFFF" filter="url(#shadow)"/>
  <text x="266" y="312" font-family="system-ui" font-size="12" fill="#6B7280">Vắng mặt</text>
  <text x="266" y="344" font-family="system-ui" font-size="28" font-weight="700" fill="#EF4444">3%</text>
  <text x="266" y="364" font-family="system-ui" font-size="10" fill="#6B7280">1 sinh viên</text>
  
  <!-- Search -->
  <text x="20" y="410" font-family="system-ui" font-size="16" font-weight="700" fill="#111827">Danh sách sinh viên</text>
  
  <rect x="20" y="426" width="335" height="44" rx="12" fill="#FFFFFF" stroke="#E5E7EB" stroke-width="1"/>
  <text x="52" y="453" font-family="system-ui" font-size="14" fill="#9CA3AF">🔍 Tìm kiếm sinh viên...</text>
  
  <!-- Student Cards -->
  <rect x="20" y="490" width="335" height="72" rx="12" fill="#FFFFFF" filter="url(#shadow)"/>
  <circle cx="44" cy="526" r="20" fill="#DBEAFE"/>
  <text x="44" y="532" font-family="system-ui" font-size="14" font-weight="600" fill="#3FA9F5" text-anchor="middle">NV</text>
  
  <text x="76" y="518" font-family="system-ui" font-size="14" font-weight="600" fill="#111827">Nguyễn Văn A</text>
  <text x="76" y="536" font-family="system-ui" font-size="12" fill="#6B7280">MSSV: SV001</text>
  <text x="76" y="552" font-family="system-ui" font-size="11" fill="#6B7280">Tỷ lệ: 95%</text>
  
  <rect x="271" y="506" width="64" height="22" rx="11" fill="#D1FAE5"/>
  <text x="303" y="521" font-family="system-ui" font-size="11" font-weight="600" fill="#065F46" text-anchor="middle">Tốt</text>
  
  <circle cx="325" cy="546" r="16" fill="#F3F4F6"/>
  <text x="325" y="551" font-family="system-ui" font-size="14" fill="#6B7280" text-anchor="middle">→</text>
  
  <rect x="20" y="574" width="335" height="72" rx="12" fill="#FFFFFF" filter="url(#shadow)"/>
  <circle cx="44" cy="610" r="20" fill="#DBEAFE"/>
  <text x="44" y="616" font-family="system-ui" font-size="14" font-weight="600" fill="#3FA9F5" text-anchor="middle">TH</text>
  
  <text x="76" y="602" font-family="system-ui" font-size="14" font-weight="600" fill="#111827">Trần Thị B</text>
  <text x="76" y="620" font-family="system-ui" font-size="12" fill="#6B7280">MSSV: SV002</text>
  <text x="76" y="636" font-family="system-ui" font-size="11" fill="#6B7280">Tỷ lệ: 90%</text>
  
  <rect x="271" y="590" width="64" height="22" rx="11" fill="#D1FAE5"/>
  <text x="303" y="605" font-family="system-ui" font-size="11" font-weight="600" fill="#065F46" text-anchor="middle">Tốt</text>
  
  <circle cx="325" cy="630" r="16" fill="#F3F4F6"/>
  <text x="325" y="635" font-family="system-ui" font-size="14" fill="#6B7280" text-anchor="middle">→</text>
  
  <rect x="20" y="658" width="335" height="72" rx="12" fill="#FFFFFF" filter="url(#shadow)"/>
  <circle cx="44" cy="694" r="20" fill="#FEF3C7"/>
  <text x="44" y="700" font-family="system-ui" font-size="14" font-weight="600" fill="#F59E0B" text-anchor="middle">LV</text>
  
  <text x="76" y="686" font-family="system-ui" font-size="14" font-weight="600" fill="#111827">Lê Văn C</text>
  <text x="76" y="704" font-family="system-ui" font-size="12" fill="#6B7280">MSSV: SV003</text>
  <text x="76" y="720" font-family="system-ui" font-size="11" fill="#6B7280">Tỷ lệ: 75%</text>
  
  <rect x="258" y="674" width="77" height="22" rx="11" fill="#FEF3C7"/>
  <text x="296.5" y="689" font-family="system-ui" font-size="11" font-weight="600" fill="#92400E" text-anchor="middle">Cần cải thiện</text>
  
  <circle cx="325" cy="714" r="16" fill="#F3F4F6"/>
  <text x="325" y="719" font-family="system-ui" font-size="14" fill="#6B7280" text-anchor="middle">→</text>
  
  <!-- Home Indicator -->
  <rect x="121" y="788" width="134" height="5" rx="2.5" fill="#000000" opacity="0.3"/>
</svg>
